<?xml version="1.0" encoding="utf-8"?>
<!-- Generator: Adobe Illustrator 15.0.0, SVG Export Plug-In . SVG Version: 6.00 Build 0)  -->
<!DOCTYPE svg PUBLIC "-//W3C//DTD SVG 1.0//EN" "http://www.w3.org/TR/2001/REC-SVG-20010904/DTD/svg10.dtd">
<svg version="1.0" id="Ebene_1" xmlns="http://www.w3.org/2000/svg" xmlns:xlink="http://www.w3.org/1999/xlink" x="0px" y="0px"
	 width="600px" height="600px" viewBox="0 0 600 600" enable-background="new 0 0 600 600" xml:space="preserve">
<path fill="#FFFFFF" d="M300,0C134.317,0,0,134.317,0,300c0,165.684,134.317,300,300,300c165.684,0,300-134.316,300-300
	C600,134.317,465.684,0,300,0z M396.48,451.98l-21.439-33.773C414.091,393.367,440,349.714,440,300c0-77.324-62.675-140-140-140
	s-140,62.676-140,140c0,28.771,8.681,55.511,23.563,77.75l7.266-47.427l39.54,6.057l-14.992,97.843l-0.135-0.021l0.027,0.134
	l-97.712,19.508l-7.831-39.227l44.599-8.904C132.744,376.031,120,339.51,120,300c0-99.415,80.585-180,180-180s180,80.585,180,180
	C480,363.915,446.688,420.042,396.48,451.98z"/>
</svg>
