<?xml version="1.0" encoding="utf-8"?>
<!-- Generator: Adobe Illustrator 15.0.0, SVG Export Plug-In . SVG Version: 6.00 Build 0)  -->
<!DOCTYPE svg PUBLIC "-//W3C//DTD SVG 1.1//EN" "http://www.w3.org/Graphics/SVG/1.1/DTD/svg11.dtd">
<svg version="1.1" id="Ebene_1" xmlns="http://www.w3.org/2000/svg" xmlns:xlink="http://www.w3.org/1999/xlink" x="0px" y="0px"
	 width="600px" height="600px" viewBox="0 0 600 600" enable-background="new 0 0 600 600" xml:space="preserve">
<circle fill="none" stroke="#FFFFFF" stroke-width="30" stroke-miterlimit="10" cx="300" cy="300" r="285"/>
<path fill="#FFFFFF" d="M300,120c-99.415,0-180,80.585-180,180c0,39.51,12.744,76.031,34.326,105.713l-44.599,8.904l7.831,39.227
	l97.712-19.508l-0.027-0.134l0.135,0.021l14.992-97.843l-39.54-6.057l-7.266,47.427C168.681,355.511,160,328.771,160,300
	c0-77.324,62.675-140,140-140s140,62.676,140,140c0,49.714-25.909,93.367-64.959,118.207l21.439,33.773
	C446.688,420.042,480,363.915,480,300C480,200.585,399.415,120,300,120z"/>
</svg>
