<?xml version="1.0" encoding="utf-8"?>
<!-- Generator: Adobe Illustrator 15.0.0, SVG Export Plug-In . SVG Version: 6.00 Build 0)  -->
<!DOCTYPE svg PUBLIC "-//W3C//DTD SVG 1.1//EN" "http://www.w3.org/Graphics/SVG/1.1/DTD/svg11.dtd">
<svg version="1.1" id="Ebene_1" xmlns="http://www.w3.org/2000/svg" xmlns:xlink="http://www.w3.org/1999/xlink" x="0px" y="0px"
	 width="600px" height="600px" viewBox="0 0 600 600" enable-background="new 0 0 600 600" xml:space="preserve">
<g>
	<path fill="#FFFFFF" d="M299.63,498.517c-39.64,0-85.487-87.268-97.492-125.047c-8.552-26.916-16.583-126.53,0-149.39
		c15.056-20.755,71.852-31.842,97.492-31.842c25.64,0,82.437,11.087,97.491,31.842c16.583,22.86,8.552,122.474,0,149.39
		C385.117,411.249,339.27,498.517,299.63,498.517z"/>
	<path fill="#FFFFFF" d="M237.047,193.761c21.771-7.347,47.539-11.165,62.583-11.165c15.837,0,43.559,4.232,65.99,12.357
		c3.461-3.711,5.929-7.527,6.937-11.293c9.147-34.142-35.349-122.443-70.695-122.442s-79.839,88.303-70.689,122.445
		C232.072,187.027,234.152,190.429,237.047,193.761z"/>
	<g>
		
			<ellipse transform="matrix(0.6428 0.766 -0.766 0.6428 163.0876 -158.5469)" fill="#FFFFFF" cx="251.547" cy="95.599" rx="46.279" ry="9.838"/>
		
			<ellipse transform="matrix(0.9848 0.1736 -0.1736 0.9848 13.3289 -33.0666)" fill="#FFFFFF" cx="195.641" cy="59.641" rx="34.104" ry="7.725"/>
	</g>
	<g>
		<path fill="#FFFFFF" d="M109.108,129.231c4.031-1.631,9.293,8.292,11.756,22.165c1.339,7.547,1.569,14.704,0.856,19.928
			c2.459,3.941,4.754,10.532,6.15,18.394c0.862,4.864,1.265,9.565,1.251,13.693c8.031,2.792,19.938,10.43,32.509,21.391
			c10.978,9.573,20.254,19.754,26.169,28.248c-0.344,5.954-0.547,12.341-0.629,18.963c-7.912-1.845-21.104-9.938-35.117-22.159
			c-12.646-11.027-23.027-22.859-28.62-31.991c-3.733-1.04-8.014-10.135-10.161-22.238c-1.339-7.547-1.571-14.704-0.858-19.928
			c-2.459-3.941-4.753-10.532-6.149-18.393C103.805,143.431,105.077,130.862,109.108,129.231z"/>
		<path fill="#FFFFFF" d="M102.084,403.374c0.898-7.694,2.691-14.328,4.799-18.607c-1.127-5.143-1.363-12.58-0.428-20.595
			c1.063-9.102,3.377-16.72,5.985-20.709c-0.217-7.835,17.066-21.131,39.513-30.217c13.892-5.621,26.599-8.348,34.842-7.966
			c0.196,6.223,0.464,12.401,0.792,18.387c-7.166,6.029-18.106,12.438-30.677,17.524c-14.379,5.818-27.492,8.538-35.695,7.916
			c0.858,5.03,0.969,11.791,0.125,19.026c-0.899,7.694-2.691,14.329-4.801,18.608c1.127,5.142,1.363,12.579,0.428,20.596
			c-1.653,14.144-6.323,24.723-10.433,23.628C102.427,429.871,100.433,417.519,102.084,403.374z"/>
		<path fill="#FFFFFF" d="M128.56,520.667c0.493-8.509,1.933-16.004,3.813-20.987c-1.395-5.416-2.019-13.469-1.505-22.33
			c0.697-12.047,3.292-22.064,6.347-25.787c2.847-12.365,11.744-33.329,23.871-55.159c10.354-18.637,20.71-33.665,28.227-41.636
			c0.82,7.775,1.718,14.24,2.627,18.702c0.361,1.776,0.771,3.663,1.226,5.645c-4.322,10.636-10.311,23.112-17.408,35.886
			c-11.616,20.91-23.231,37.271-30.841,44.224c1.036,5.284,1.454,12.391,1.007,20.113c-0.493,8.509-1.934,16.004-3.814,20.986
			c1.394,5.418,2.02,13.471,1.506,22.335c-0.907,15.639-5.012,27.874-9.168,27.323C130.289,549.435,127.653,536.31,128.56,520.667z"
			/>
	</g>
	<g>
		<path fill="#FFFFFF" d="M490.892,117.446c-4.031-1.631-9.294,8.292-11.757,22.165c-1.338,7.547-1.569,14.704-0.855,19.928
			c-2.46,3.941-4.754,10.531-6.149,18.394c-0.862,4.864-1.266,9.565-1.252,13.693c-8.03,2.792-19.938,10.43-32.508,21.391
			c-10.979,9.572-20.255,19.754-26.171,28.248c0.345,5.954,0.549,12.341,0.63,18.963c7.912-1.845,21.104-9.938,35.117-22.159
			c12.646-11.026,23.027-22.858,28.62-31.99c3.733-1.04,8.014-10.135,10.16-22.238c1.339-7.547,1.571-14.704,0.857-19.928
			c2.46-3.941,4.755-10.532,6.149-18.394C496.195,131.646,494.923,119.078,490.892,117.446z"/>
		<path fill="#FFFFFF" d="M497.915,391.589c-0.897-7.694-2.691-14.328-4.799-18.607c1.126-5.142,1.363-12.579,0.428-20.595
			c-1.063-9.101-3.377-16.72-5.984-20.709c0.217-7.834-17.067-21.131-39.515-30.216c-13.892-5.622-26.599-8.347-34.841-7.965
			c-0.197,6.223-0.465,12.4-0.792,18.385c7.165,6.029,18.107,12.438,30.676,17.524c14.38,5.819,27.493,8.538,35.695,7.917
			c-0.857,5.03-0.969,11.791-0.124,19.025c0.898,7.695,2.692,14.329,4.801,18.608c-1.128,5.143-1.363,12.58-0.429,20.596
			c1.653,14.145,6.323,24.723,10.433,23.628C497.573,418.087,499.566,405.734,497.915,391.589z"/>
		<path fill="#FFFFFF" d="M471.441,508.883c-0.494-8.509-1.934-16.005-3.813-20.987c1.395-5.417,2.018-13.47,1.505-22.331
			c-0.697-12.046-3.292-22.063-6.347-25.786c-2.847-12.365-11.744-33.33-23.871-55.159c-10.354-18.638-20.71-33.666-28.227-41.636
			c-0.82,7.774-1.718,14.24-2.627,18.701c-0.36,1.776-0.771,3.664-1.226,5.646c4.321,10.635,10.311,23.112,17.408,35.886
			c11.615,20.91,23.23,37.271,30.84,44.223c-1.036,5.285-1.454,12.391-1.007,20.114c0.492,8.509,1.935,16.004,3.813,20.986
			c-1.394,5.417-2.02,13.47-1.506,22.335c0.907,15.639,5.012,27.873,9.168,27.323C469.711,537.649,472.348,524.524,471.441,508.883z
			"/>
	</g>
	<g>
		
			<ellipse transform="matrix(-0.6428 0.766 -0.766 -0.6428 650.312 -112.0458)" fill="#FFFFFF" cx="351.28" cy="95.599" rx="46.279" ry="9.839"/>
		
			<ellipse transform="matrix(-0.9848 0.1736 -0.1736 -0.9848 818.5428 47.6762)" fill="#FFFFFF" cx="407.186" cy="59.641" rx="34.104" ry="7.725"/>
	</g>
</g>
</svg>
