<?xml version="1.0" encoding="utf-8"?>
<!-- Generator: Adobe Illustrator 15.0.0, SVG Export Plug-In . SVG Version: 6.00 Build 0)  -->
<!DOCTYPE svg PUBLIC "-//W3C//DTD SVG 1.1//EN" "http://www.w3.org/Graphics/SVG/1.1/DTD/svg11.dtd">
<svg version="1.1" id="Ebene_1" xmlns="http://www.w3.org/2000/svg" xmlns:xlink="http://www.w3.org/1999/xlink" x="0px" y="0px"
	 width="600px" height="600px" viewBox="0 0 600 600" enable-background="new 0 0 600 600" xml:space="preserve">
<path fill="#FFFFFF" d="M300,0C134.317,0,0,134.317,0,300c0,165.684,134.317,300,300,300c165.684,0,300-134.316,300-300
	C600,134.317,465.684,0,300,0z M387,448H150v-22h237V448z M270,323v-23h33v23H270z M387,206H258v211h-33V172h21h12h129V206z
	 M470,448h-75v-14v-8V172h33v254h42V448z"/>
</svg>
