<?xml version="1.0" encoding="utf-8"?>
<!-- Generator: Adobe Illustrator 15.0.0, SVG Export Plug-In . SVG Version: 6.00 Build 0)  -->
<!DOCTYPE svg PUBLIC "-//W3C//DTD SVG 1.1//EN" "http://www.w3.org/Graphics/SVG/1.1/DTD/svg11.dtd">
<svg version="1.1" id="Ebene_1" xmlns="http://www.w3.org/2000/svg" xmlns:xlink="http://www.w3.org/1999/xlink" x="0px" y="0px"
	 width="600px" height="600px" viewBox="0 0 600 600" enable-background="new 0 0 600 600" xml:space="preserve">
<path fill="#FFFFFF" d="M300,0C134.317,0,0,134.317,0,300c0,165.684,134.317,300,300,300c165.684,0,300-134.316,300-300
	C600,134.317,465.684,0,300,0z M210,448h-60v-54h60V448z M210,373h-60v-52h60V373z M210,298h-60v-52h60V298z M210,226h-60v-54h60
	V226z M470,448H232v-54h238V448z M470,373H232v-51h238V373z M470,298H232v-51h238V298z M470,226H232v-53h238V226z"/>
</svg>
