<?xml version="1.0" encoding="utf-8"?>
<!-- Generator: Adobe Illustrator 15.0.0, SVG Export Plug-In . SVG Version: 6.00 Build 0)  -->
<!DOCTYPE svg PUBLIC "-//W3C//DTD SVG 1.1//EN" "http://www.w3.org/Graphics/SVG/1.1/DTD/svg11.dtd">
<svg version="1.1" id="Ebene_1" xmlns="http://www.w3.org/2000/svg" xmlns:xlink="http://www.w3.org/1999/xlink" x="0px" y="0px"
	 width="600px" height="600px" viewBox="0 0 600 600" enable-background="new 0 0 600 600" xml:space="preserve">
<g>
	<rect x="255" y="219" fill="#FFFFFF" width="90" height="50"/>
	<rect x="254" y="359" fill="#FFFFFF" width="90" height="50"/>
	<rect x="365" y="290" fill="#FFFFFF" width="90" height="50"/>
	<rect x="365" y="219" fill="#FFFFFF" width="90" height="50"/>
	<rect x="256" y="289" fill="#FFFFFF" width="90" height="50"/>
	<rect x="145" y="219" fill="#FFFFFF" width="90" height="50"/>
	<rect x="145" y="359" fill="#FFFFFF" width="90" height="50"/>
	<rect x="145" y="289" fill="#FFFFFF" width="90" height="50"/>
	<path fill="#FFFFFF" d="M300,0C134.314,0,0,134.314,0,300s134.314,300,300,300s300-134.314,300-300S465.686,0,300,0z M480,435H120
		V166h360V435z"/>
</g>
</svg>
