<?xml version="1.0" encoding="utf-8"?>
<!-- Generator: Adobe Illustrator 15.0.0, SVG Export Plug-In . SVG Version: 6.00 Build 0)  -->
<!DOCTYPE svg PUBLIC "-//W3C//DTD SVG 1.1//EN" "http://www.w3.org/Graphics/SVG/1.1/DTD/svg11.dtd">
<svg version="1.1" id="Ebene_1" xmlns="http://www.w3.org/2000/svg" xmlns:xlink="http://www.w3.org/1999/xlink" x="0px" y="0px"
	 width="600px" height="600px" viewBox="0 0 600 600" enable-background="new 0 0 600 600" xml:space="preserve">
<circle fill="none" stroke="#FFFFFF" stroke-width="30" stroke-miterlimit="10" cx="300" cy="300" r="285"/>
<path fill="#FFFFFF" d="M120,166v269h360V166H120z M255,219h90v50h-90V219z M235,409h-90v-50h90V409z M235,339h-90v-50h90V339z
	 M235,269h-90v-50h90V269z M344,409h-90v-50h90V409z M346,339h-90v-50h90V339z M455,340h-90v-50h90V340z M455,269h-90v-50h90V269z"
	/>
</svg>
