<?xml version="1.0" encoding="utf-8"?>
<!-- Generator: Adobe Illustrator 15.0.0, SVG Export Plug-In . SVG Version: 6.00 Build 0)  -->
<!DOCTYPE svg PUBLIC "-//W3C//DTD SVG 1.1//EN" "http://www.w3.org/Graphics/SVG/1.1/DTD/svg11.dtd">
<svg version="1.1" id="Ebene_1" xmlns="http://www.w3.org/2000/svg" xmlns:xlink="http://www.w3.org/1999/xlink" x="0px" y="0px"
	 width="600px" height="600px" viewBox="0 0 600 600" enable-background="new 0 0 600 600" xml:space="preserve">
<polygon fill="#FFFFFF" points="321.063,208 278.938,208 257.878,147 342.122,147 "/>
<polygon fill="#FFFFFF" points="294.103,139 259.563,139 212.785,98.515 239.743,52.161 "/>
<polygon fill="#FFFFFF" points="305.897,139 340.438,139 387.215,98.515 360.257,52.161 "/>
<polygon fill="#FFFFFF" points="332.234,85 267.766,85 247.414,50 352.586,50 "/>
<path fill="#FFFFFF" d="M358.129,424.072c-4.137-46.194-22.37-139.572-37.25-210.572h-40.916
	c-14.88,71-33.113,164.378-37.249,210.572c-0.975,10.89,0,58.085,0,58.085l57.707,67.794l57.708-67.802
	C358.129,482.149,359.104,434.962,358.129,424.072z"/>
</svg>
