<?xml version="1.0" encoding="utf-8"?>
<!-- Generator: Adobe Illustrator 15.0.0, SVG Export Plug-In . SVG Version: 6.00 Build 0)  -->
<!DOCTYPE svg PUBLIC "-//W3C//DTD SVG 1.1//EN" "http://www.w3.org/Graphics/SVG/1.1/DTD/svg11.dtd">
<svg version="1.1" id="Ebene_1" xmlns="http://www.w3.org/2000/svg" xmlns:xlink="http://www.w3.org/1999/xlink" x="0px" y="0px"
	 width="600px" height="600px" viewBox="0 0 600 600" enable-background="new 0 0 600 600" xml:space="preserve">
<path fill="#FFFFFF" d="M146,306h0.852c0-1-0.007-0.639-0.007-0.686c0-20.682,68.629-37.721,153.283-37.721
	c84.657,0,153.287,17.175,153.287,37.856c0,0.048-0.007-0.45-0.008,0.55H452v20.121l97.401-46.413L299.776,159.719L49.552,279.708
	L146,326.121V306z"/>
<path fill="#FFFFFF" d="M441.152,313.959c0-19.027-63.14-34.407-141.024-34.407c-77.881,0-141.021,15.358-141.021,34.386
	c0,0.044,0.006,0.063,0.006,0.063H159v89h282v-89h0.146C441.146,314,441.152,314.004,441.152,313.959z"/>
<circle fill="#FFFFFF" cx="99.662" cy="366.593" r="23.304"/>
<polygon fill="#FFFFFF" points="92,306.343 92,367 106,367 106,312.979 "/>
<path fill="#FFFFFF" d="M99.547,366.51l-35.835,62.068c10.086,7.357,22.509,11.703,35.95,11.703
	c13.368,0,25.731-4.299,35.788-11.585L99.547,366.51z"/>
</svg>
